<svg width="1922" height="1082" viewBox="0 0 1922 1082" fill="none" xmlns="http://www.w3.org/2000/svg">
<line x1="1.19066" y1="1080.32" x2="1920.32" y2="0.809397" stroke="#FFF500" stroke-opacity="0.5" stroke-linecap="square" stroke-dasharray="2 2"/>
<line x1="0.5" y1="-0.5" x2="2202.41" y2="-0.5" transform="matrix(-0.871576 -0.490261 -0.490261 0.871576 1921 1081)" stroke="#FFF500" stroke-opacity="0.5" stroke-linecap="square" stroke-dasharray="2 2"/>
<line x1="961.5" y1="1.5" x2="961.5" y2="1080.5" stroke="#FFF500" stroke-opacity="0.5" stroke-linecap="square" stroke-dasharray="2 2"/>
<line x1="481.5" y1="1.5" x2="481.5" y2="1080.5" stroke="#FFF500" stroke-opacity="0.5" stroke-linecap="square" stroke-dasharray="2 2"/>
<line x1="385.5" y1="1.5" x2="385.5" y2="1080.5" stroke="#FFF500" stroke-opacity="0.5" stroke-linecap="square" stroke-dasharray="2 2"/>
<line x1="321.5" y1="1.5" x2="321.5" y2="1080.5" stroke="#FFF500" stroke-opacity="0.5" stroke-linecap="square" stroke-dasharray="2 2"/>
<line x1="765.5" y1="1.5" x2="765.5" y2="1080.5" stroke="#FFF500" stroke-opacity="0.5" stroke-linecap="square" stroke-dasharray="2 2"/>
<line x1="1153.5" y1="1.5" x2="1153.5" y2="1080.5" stroke="#FFF500" stroke-opacity="0.5" stroke-linecap="square" stroke-dasharray="2 2"/>
<line x1="1537" y1="1.5" x2="1537" y2="1080.5" stroke="#FFF500" stroke-opacity="0.5" stroke-linecap="square" stroke-dasharray="2 2"/>
<line x1="1600.5" y1="1.5" x2="1600.5" y2="1080.5" stroke="#FFF500" stroke-opacity="0.5" stroke-linecap="square" stroke-dasharray="2 2"/>
<line x1="1680.25" y1="1.5" x2="1680.25" y2="1080.5" stroke="#FFF500" stroke-opacity="0.5" stroke-linecap="square" stroke-dasharray="2 2"/>
<line x1="1799.5" y1="1.5" x2="1799.5" y2="1080.5" stroke="#FFF500" stroke-opacity="0.5" stroke-linecap="square" stroke-dasharray="2 2"/>
<line x1="1862.5" y1="1.5" x2="1862.5" y2="1080.5" stroke="#FFF500" stroke-opacity="0.5" stroke-linecap="square" stroke-dasharray="2 2"/>
<line x1="1892.5" y1="1.5" x2="1892.5" y2="1080.5" stroke="#FFF500" stroke-opacity="0.5" stroke-linecap="square" stroke-dasharray="2 2"/>
<line x1="243.5" y1="1.5" x2="243.5" y2="1080.5" stroke="#FFF500" stroke-opacity="0.5" stroke-linecap="square" stroke-dasharray="2 2"/>
<line x1="122.25" y1="1.5" x2="122.25" y2="1080.5" stroke="#FFF500" stroke-opacity="0.5" stroke-linecap="square" stroke-dasharray="2 2"/>
<line x1="59.5" y1="1.5" x2="59.5" y2="1080.5" stroke="#FFF500" stroke-opacity="0.5" stroke-linecap="square" stroke-dasharray="2 2"/>
<line x1="28.5" y1="1.5" x2="28.5" y2="1080.5" stroke="#FFF500" stroke-opacity="0.5" stroke-linecap="square" stroke-dasharray="2 2"/>
<line x1="640.75" y1="1.5" x2="640.75" y2="1080.5" stroke="#FFF500" stroke-opacity="0.5" stroke-linecap="square" stroke-dasharray="2 2"/>
<line x1="576.5" y1="1.5" x2="576.5" y2="1080.5" stroke="#FFF500" stroke-opacity="0.5" stroke-linecap="square" stroke-dasharray="2 2"/>
<line x1="1281.25" y1="1.5" x2="1281.25" y2="1080.5" stroke="#FFF500" stroke-opacity="0.5" stroke-linecap="square" stroke-dasharray="2 2"/>
<line x1="1345.5" y1="1.5" x2="1345.5" y2="1080.5" stroke="#FFF500" stroke-opacity="0.5" stroke-linecap="square" stroke-dasharray="2 2"/>
<line x1="1441.5" y1="1.5" x2="1441.5" y2="1080.5" stroke="#FFF500" stroke-opacity="0.5" stroke-linecap="square" stroke-dasharray="2 2"/>
<line x1="1.5" y1="540.5" x2="1920.5" y2="540.5" stroke="#FFF500" stroke-opacity="0.5" stroke-linecap="square" stroke-dasharray="2 2"/>
<line x1="1.5" y1="271" x2="1920.5" y2="271" stroke="#FFF500" stroke-opacity="0.5" stroke-linecap="square" stroke-dasharray="2 2"/>
<line x1="1.5" y1="137" x2="1920.5" y2="137" stroke="#FFF500" stroke-opacity="0.5" stroke-linecap="square" stroke-dasharray="2 2"/>
<line x1="1.5" y1="35.75" x2="1920.5" y2="35.75" stroke="#FFF500" stroke-opacity="0.5" stroke-linecap="square" stroke-dasharray="2 2"/>
<line x1="1.5" y1="360.25" x2="1920.5" y2="360.25" stroke="#FFF500" stroke-opacity="0.5" stroke-linecap="square" stroke-dasharray="2 2"/>
<line x1="1.5" y1="433" x2="1920.5" y2="433" stroke="#FFF500" stroke-opacity="0.5" stroke-linecap="square" stroke-dasharray="2 2"/>
<line x1="1.5" y1="647.5" x2="1920.5" y2="647.5" stroke="#FFF500" stroke-opacity="0.5" stroke-linecap="square" stroke-dasharray="2 2"/>
<line x1="1.5" y1="720.25" x2="1920.5" y2="720.25" stroke="#FFF500" stroke-opacity="0.5" stroke-linecap="square" stroke-dasharray="2 2"/>
<line x1="1.5" y1="810.5" x2="1920.5" y2="810.5" stroke="#FFF500" stroke-opacity="0.5" stroke-linecap="square" stroke-dasharray="2 2"/>
<line x1="1.5" y1="943.5" x2="1920.5" y2="943.5" stroke="#FFF500" stroke-opacity="0.5" stroke-linecap="square" stroke-dasharray="2 2"/>
<line x1="1.5" y1="1047.5" x2="1920.5" y2="1047.5" stroke="#FFF500" stroke-opacity="0.5" stroke-linecap="square" stroke-dasharray="2 2"/>
<line x1="0.958842" y1="1080.29" x2="961.294" y2="1.04111" stroke="#FFF500" stroke-opacity="0.5" stroke-linecap="square" stroke-dasharray="2 2"/>
<line x1="961.958" y1="1080.29" x2="1920.29" y2="1.04199" stroke="#FFF500" stroke-opacity="0.5" stroke-linecap="square" stroke-dasharray="2 2"/>
<line x1="0.5" y1="-0.5" x2="1444.49" y2="-0.5" transform="matrix(-0.664364 -0.747409 -0.747409 0.664364 961 1081)" stroke="#FFF500" stroke-opacity="0.5" stroke-linecap="square" stroke-dasharray="2 2"/>
<line x1="0.5" y1="-0.5" x2="1444.49" y2="-0.5" transform="matrix(-0.664364 -0.747409 -0.747409 0.664364 1921 1081)" stroke="#FFF500" stroke-opacity="0.5" stroke-linecap="square" stroke-dasharray="2 2"/>
<line x1="1920.38" y1="1081.35" x2="1.34602" y2="541.617" stroke="#FFF500" stroke-opacity="0.5" stroke-linecap="square" stroke-dasharray="2 2"/>
<line x1="1920.38" y1="540.346" x2="1.34617" y2="1.61651" stroke="#FFF500" stroke-opacity="0.5" stroke-linecap="square" stroke-dasharray="2 2"/>
<line x1="1.34595" y1="1080.38" x2="1920.38" y2="540.654" stroke="#FFF500" stroke-opacity="0.5" stroke-linecap="square" stroke-dasharray="2 2"/>
<line x1="0.5" y1="-0.5" x2="1993.99" y2="-0.5" transform="matrix(0.962651 -0.270746 -0.270746 -0.962651 1 541)" stroke="#FFF500" stroke-opacity="0.5" stroke-linecap="square" stroke-dasharray="2 2"/>
</svg>
