<svg width="1920" height="1080" viewBox="0 0 1920 1080" fill="none" xmlns="http://www.w3.org/2000/svg">
<line x1="-0.245131" y1="1079.56" x2="1919.75" y2="-0.435733" stroke="#EFF4CD" stroke-opacity="0.25"/>
<line y1="-0.5" x2="2202.91" y2="-0.5" transform="matrix(-0.871576 -0.490261 -0.490261 0.871576 1920 1080)" stroke="#EFF4CD" stroke-opacity="0.25"/>
<line x1="960.5" x2="960.5" y2="1080" stroke="#EFF4CD" stroke-opacity="0.25"/>
<line x1="480.5" x2="480.5" y2="1080" stroke="#EFF4CD" stroke-opacity="0.25"/>
<line x1="384.5" x2="384.5" y2="1080" stroke="#EFF4CD" stroke-opacity="0.25"/>
<line x1="320.5" x2="320.5" y2="1080" stroke="#EFF4CD" stroke-opacity="0.25"/>
<line x1="764.5" x2="764.5" y2="1080" stroke="#EFF4CD" stroke-opacity="0.25"/>
<line x1="1152.5" x2="1152.5" y2="1080" stroke="#EFF4CD" stroke-opacity="0.25"/>
<line x1="1536" x2="1536" y2="1080" stroke="#EFF4CD" stroke-opacity="0.25"/>
<line x1="1599.5" x2="1599.5" y2="1080" stroke="#EFF4CD" stroke-opacity="0.25"/>
<line x1="1679.25" x2="1679.25" y2="1080" stroke="#EFF4CD" stroke-opacity="0.25"/>
<line x1="1798.5" x2="1798.5" y2="1080" stroke="#EFF4CD" stroke-opacity="0.25"/>
<line x1="1861.5" x2="1861.5" y2="1080" stroke="#EFF4CD" stroke-opacity="0.25"/>
<line x1="1891.5" x2="1891.5" y2="1080" stroke="#EFF4CD" stroke-opacity="0.25"/>
<line x1="242.5" x2="242.5" y2="1080" stroke="#EFF4CD" stroke-opacity="0.25"/>
<line x1="121.25" x2="121.25" y2="1080" stroke="#EFF4CD" stroke-opacity="0.25"/>
<line x1="58.5" x2="58.5" y2="1080" stroke="#EFF4CD" stroke-opacity="0.25"/>
<line x1="27.5" x2="27.5" y2="1080" stroke="#EFF4CD" stroke-opacity="0.25"/>
<line x1="639.75" x2="639.75" y2="1080" stroke="#EFF4CD" stroke-opacity="0.25"/>
<line x1="575.5" x2="575.5" y2="1080" stroke="#EFF4CD" stroke-opacity="0.25"/>
<line x1="1280.25" x2="1280.25" y2="1080" stroke="#EFF4CD" stroke-opacity="0.25"/>
<line x1="1344.5" x2="1344.5" y2="1080" stroke="#EFF4CD" stroke-opacity="0.25"/>
<line x1="1440.5" x2="1440.5" y2="1080" stroke="#EFF4CD" stroke-opacity="0.25"/>
<line y1="539.5" x2="1920" y2="539.5" stroke="#EFF4CD" stroke-opacity="0.25"/>
<line y1="270" x2="1920" y2="270" stroke="#EFF4CD" stroke-opacity="0.25"/>
<line y1="136" x2="1920" y2="136" stroke="#EFF4CD" stroke-opacity="0.25"/>
<line y1="34.75" x2="1920" y2="34.75" stroke="#EFF4CD" stroke-opacity="0.25"/>
<line y1="359.25" x2="1920" y2="359.25" stroke="#EFF4CD" stroke-opacity="0.25"/>
<line y1="432" x2="1920" y2="432" stroke="#EFF4CD" stroke-opacity="0.25"/>
<line y1="646.5" x2="1920" y2="646.5" stroke="#EFF4CD" stroke-opacity="0.25"/>
<line y1="719.25" x2="1920" y2="719.25" stroke="#EFF4CD" stroke-opacity="0.25"/>
<line y1="809.5" x2="1920" y2="809.5" stroke="#EFF4CD" stroke-opacity="0.25"/>
<line y1="942.5" x2="1920" y2="942.5" stroke="#EFF4CD" stroke-opacity="0.25"/>
<line y1="1046.5" x2="1920" y2="1046.5" stroke="#EFF4CD" stroke-opacity="0.25"/>
<line x1="-0.373533" y1="1079.67" x2="960.626" y2="-0.332419" stroke="#EFF4CD" stroke-opacity="0.25"/>
<line x1="960.626" y1="1079.67" x2="1919.63" y2="-0.33189" stroke="#EFF4CD" stroke-opacity="0.25"/>
<line y1="-0.5" x2="1444.99" y2="-0.5" transform="matrix(-0.664364 -0.747409 -0.747409 0.664364 960 1080)" stroke="#EFF4CD" stroke-opacity="0.25"/>
<line y1="-0.5" x2="1444.99" y2="-0.5" transform="matrix(-0.664364 -0.747409 -0.747409 0.664364 1920 1080)" stroke="#EFF4CD" stroke-opacity="0.25"/>
<line x1="1919.86" y1="1080.48" x2="-0.135303" y2="540.481" stroke="#EFF4CD" stroke-opacity="0.25"/>
<line x1="1919.86" y1="539.481" x2="-0.135218" y2="0.481365" stroke="#EFF4CD" stroke-opacity="0.25"/>
<line x1="-0.135373" y1="1079.52" x2="1919.86" y2="539.519" stroke="#EFF4CD" stroke-opacity="0.25"/>
<line y1="-0.5" x2="1994.49" y2="-0.5" transform="matrix(0.962651 -0.270746 -0.270746 -0.962651 0 540)" stroke="#EFF4CD" stroke-opacity="0.25"/>
</svg>
