<svg width="1440" height="5122" viewBox="0 0 1440 5122" fill="none" xmlns="http://www.w3.org/2000/svg">
<line y1="-0.5" x2="1766.97" y2="-0.5" transform="matrix(0.814955 -0.579524 0.406521 0.913641 0 1025)" stroke="#D5FF40" stroke-opacity="0.5"/>
<line y1="-0.5" x2="1766.97" y2="-0.5" transform="matrix(-0.814955 -0.579524 -0.406521 0.913641 1440 1025)" stroke="#D5FF40" stroke-opacity="0.5"/>
<line x1="720.5" y1="1" x2="720.5" y2="1025" stroke="#D5FF40" stroke-opacity="0.5"/>
<line x1="360.5" y1="1" x2="360.5" y2="1025" stroke="#D5FF40" stroke-opacity="0.5"/>
<line x1="288.5" y1="1" x2="288.5" y2="1025" stroke="#D5FF40" stroke-opacity="0.5"/>
<line x1="240.5" y1="1" x2="240.5" y2="1025" stroke="#D5FF40" stroke-opacity="0.5"/>
<line x1="573.5" y1="1" x2="573.5" y2="1025" stroke="#D5FF40" stroke-opacity="0.5"/>
<line x1="864.5" y1="1" x2="864.5" y2="1025" stroke="#D5FF40" stroke-opacity="0.5"/>
<line x1="1152.12" y1="1" x2="1152.12" y2="1025" stroke="#D5FF40" stroke-opacity="0.5"/>
<line x1="1199.75" y1="1" x2="1199.75" y2="1025" stroke="#D5FF40" stroke-opacity="0.5"/>
<line x1="1259.56" y1="1" x2="1259.56" y2="1025" stroke="#D5FF40" stroke-opacity="0.5"/>
<line x1="1349" y1="1" x2="1349" y2="1025" stroke="#D5FF40" stroke-opacity="0.5"/>
<line x1="1396.25" y1="1" x2="1396.25" y2="1025" stroke="#D5FF40" stroke-opacity="0.5"/>
<line x1="1418.75" y1="1" x2="1418.75" y2="1025" stroke="#D5FF40" stroke-opacity="0.5"/>
<line x1="182" y1="1" x2="182" y2="1025" stroke="#D5FF40" stroke-opacity="0.5"/>
<line x1="91.0625" y1="1" x2="91.0625" y2="1025" stroke="#D5FF40" stroke-opacity="0.5"/>
<line x1="44" y1="1" x2="44" y2="1025" stroke="#D5FF40" stroke-opacity="0.5"/>
<line x1="20.75" y1="1" x2="20.75" y2="1025" stroke="#D5FF40" stroke-opacity="0.5"/>
<line x1="479.938" y1="1" x2="479.938" y2="1025" stroke="#D5FF40" stroke-opacity="0.5"/>
<line x1="431.75" y1="1" x2="431.75" y2="1025" stroke="#D5FF40" stroke-opacity="0.5"/>
<line x1="960.312" y1="1" x2="960.312" y2="1025" stroke="#D5FF40" stroke-opacity="0.5"/>
<line x1="1008.5" y1="1" x2="1008.5" y2="1025" stroke="#D5FF40" stroke-opacity="0.5"/>
<line x1="1080.5" y1="1" x2="1080.5" y2="1025" stroke="#D5FF40" stroke-opacity="0.5"/>
<line y1="512.5" x2="1440" y2="512.5" stroke="#D5FF40" stroke-opacity="0.5"/>
<line y1="256.974" x2="1440" y2="256.974" stroke="#D5FF40" stroke-opacity="0.5"/>
<line y1="129.922" x2="1440" y2="129.922" stroke="#D5FF40" stroke-opacity="0.5"/>
<line y1="33.9224" x2="1440" y2="33.9224" stroke="#D5FF40" stroke-opacity="0.5"/>
<line y1="341.596" x2="1440" y2="341.596" stroke="#D5FF40" stroke-opacity="0.5"/>
<line y1="410.574" x2="1440" y2="410.574" stroke="#D5FF40" stroke-opacity="0.5"/>
<line y1="613.952" x2="1440" y2="613.952" stroke="#D5FF40" stroke-opacity="0.5"/>
<line y1="682.93" x2="1440" y2="682.93" stroke="#D5FF40" stroke-opacity="0.5"/>
<line y1="768.5" x2="1440" y2="768.5" stroke="#D5FF40" stroke-opacity="0.5"/>
<line y1="894.604" x2="1440" y2="894.604" stroke="#D5FF40" stroke-opacity="0.5"/>
<line y1="993.211" x2="1440" y2="993.211" stroke="#D5FF40" stroke-opacity="0.5"/>
<line y1="-0.5" x2="1252.22" y2="-0.5" transform="matrix(0.575577 -0.817747 0.664396 0.74738 0 1025)" stroke="#D5FF40" stroke-opacity="0.5"/>
<line y1="-0.5" x2="1251.36" y2="-0.5" transform="matrix(0.574776 -0.818311 0.665169 0.746693 720.75 1025)" stroke="#D5FF40" stroke-opacity="0.5"/>
<line y1="-0.5" x2="1251.79" y2="-0.5" transform="matrix(-0.575177 -0.818029 -0.664783 0.747037 720 1025)" stroke="#D5FF40" stroke-opacity="0.5"/>
<line y1="-0.5" x2="1251.79" y2="-0.5" transform="matrix(-0.575177 -0.818029 -0.664783 0.747037 1440 1025)" stroke="#D5FF40" stroke-opacity="0.5"/>
<line y1="-0.5" x2="1528.31" y2="-0.5" transform="matrix(-0.942215 -0.33501 0.217164 -0.976135 1440 1025)" stroke="#D5FF40" stroke-opacity="0.5"/>
<line y1="-0.5" x2="1528" y2="-0.5" transform="matrix(-0.942411 -0.334459 0.216781 -0.97622 1440 512.052)" stroke="#D5FF40" stroke-opacity="0.5"/>
<line y1="-0.5" x2="1528.31" y2="-0.5" transform="matrix(0.942215 -0.33501 0.217164 0.976135 0 1025)" stroke="#D5FF40" stroke-opacity="0.5"/>
<line y1="-0.5" x2="1528.31" y2="-0.5" transform="matrix(0.942215 -0.33501 -0.217164 -0.976135 0 513)" stroke="#D5FF40" stroke-opacity="0.5"/>
<line y1="-0.5" x2="1766.97" y2="-0.5" transform="matrix(0.814955 -0.579524 0.406521 0.913641 0 2049)" stroke="#D5FF40" stroke-opacity="0.5"/>
<line y1="-0.5" x2="1766.97" y2="-0.5" transform="matrix(-0.814955 -0.579524 -0.406521 0.913641 1440 2049)" stroke="#D5FF40" stroke-opacity="0.5"/>
<line x1="720.5" y1="1025" x2="720.5" y2="2049" stroke="#D5FF40" stroke-opacity="0.5"/>
<line x1="360.5" y1="1025" x2="360.5" y2="2049" stroke="#D5FF40" stroke-opacity="0.5"/>
<line x1="288.5" y1="1025" x2="288.5" y2="2049" stroke="#D5FF40" stroke-opacity="0.5"/>
<line x1="240.5" y1="1025" x2="240.5" y2="2049" stroke="#D5FF40" stroke-opacity="0.5"/>
<line x1="573.5" y1="1025" x2="573.5" y2="2049" stroke="#D5FF40" stroke-opacity="0.5"/>
<line x1="864.5" y1="1025" x2="864.5" y2="2049" stroke="#D5FF40" stroke-opacity="0.5"/>
<line x1="1152.12" y1="1025" x2="1152.12" y2="2049" stroke="#D5FF40" stroke-opacity="0.5"/>
<line x1="1199.75" y1="1025" x2="1199.75" y2="2049" stroke="#D5FF40" stroke-opacity="0.5"/>
<line x1="1259.56" y1="1025" x2="1259.56" y2="2049" stroke="#D5FF40" stroke-opacity="0.5"/>
<line x1="1349" y1="1025" x2="1349" y2="2049" stroke="#D5FF40" stroke-opacity="0.5"/>
<line x1="1396.25" y1="1025" x2="1396.25" y2="2049" stroke="#D5FF40" stroke-opacity="0.5"/>
<line x1="1418.75" y1="1025" x2="1418.75" y2="2049" stroke="#D5FF40" stroke-opacity="0.5"/>
<line x1="182" y1="1025" x2="182" y2="2049" stroke="#D5FF40" stroke-opacity="0.5"/>
<line x1="91.0625" y1="1025" x2="91.0625" y2="2049" stroke="#D5FF40" stroke-opacity="0.5"/>
<line x1="44" y1="1025" x2="44" y2="2049" stroke="#D5FF40" stroke-opacity="0.5"/>
<line x1="20.75" y1="1025" x2="20.75" y2="2049" stroke="#D5FF40" stroke-opacity="0.5"/>
<line x1="479.938" y1="1025" x2="479.938" y2="2049" stroke="#D5FF40" stroke-opacity="0.5"/>
<line x1="431.75" y1="1025" x2="431.75" y2="2049" stroke="#D5FF40" stroke-opacity="0.5"/>
<line x1="960.312" y1="1025" x2="960.312" y2="2049" stroke="#D5FF40" stroke-opacity="0.5"/>
<line x1="1008.5" y1="1025" x2="1008.5" y2="2049" stroke="#D5FF40" stroke-opacity="0.5"/>
<line x1="1080.5" y1="1025" x2="1080.5" y2="2049" stroke="#D5FF40" stroke-opacity="0.5"/>
<line y1="1536.5" x2="1440" y2="1536.5" stroke="#D5FF40" stroke-opacity="0.5"/>
<line y1="1280.97" x2="1440" y2="1280.97" stroke="#D5FF40" stroke-opacity="0.5"/>
<line y1="1153.92" x2="1440" y2="1153.92" stroke="#D5FF40" stroke-opacity="0.5"/>
<line y1="1057.92" x2="1440" y2="1057.92" stroke="#D5FF40" stroke-opacity="0.5"/>
<line y1="1365.6" x2="1440" y2="1365.6" stroke="#D5FF40" stroke-opacity="0.5"/>
<line y1="1434.57" x2="1440" y2="1434.57" stroke="#D5FF40" stroke-opacity="0.5"/>
<line y1="1637.95" x2="1440" y2="1637.95" stroke="#D5FF40" stroke-opacity="0.5"/>
<line y1="1706.93" x2="1440" y2="1706.93" stroke="#D5FF40" stroke-opacity="0.5"/>
<line y1="1792.5" x2="1440" y2="1792.5" stroke="#D5FF40" stroke-opacity="0.5"/>
<line y1="1844.5" x2="1440" y2="1844.5" stroke="#D5FF40" stroke-opacity="0.5"/>
<line y1="1918.6" x2="1440" y2="1918.6" stroke="#D5FF40" stroke-opacity="0.5"/>
<line y1="2017.21" x2="1440" y2="2017.21" stroke="#D5FF40" stroke-opacity="0.5"/>
<line y1="1983.5" x2="1440" y2="1983.5" stroke="#D5FF40" stroke-opacity="0.5"/>
<line y1="-0.5" x2="1252.22" y2="-0.5" transform="matrix(0.575577 -0.817747 0.664396 0.74738 0 2049)" stroke="#D5FF40" stroke-opacity="0.5"/>
<line y1="-0.5" x2="1251.36" y2="-0.5" transform="matrix(0.574776 -0.818311 0.665169 0.746693 720.75 2049)" stroke="#D5FF40" stroke-opacity="0.5"/>
<line y1="-0.5" x2="1251.79" y2="-0.5" transform="matrix(-0.575177 -0.818029 -0.664783 0.747037 720 2049)" stroke="#D5FF40" stroke-opacity="0.5"/>
<line y1="-0.5" x2="1251.79" y2="-0.5" transform="matrix(-0.575177 -0.818029 -0.664783 0.747037 1440 2049)" stroke="#D5FF40" stroke-opacity="0.5"/>
<line y1="-0.5" x2="1528.31" y2="-0.5" transform="matrix(-0.942215 -0.33501 0.217164 -0.976135 1440 2049)" stroke="#D5FF40" stroke-opacity="0.5"/>
<line y1="-0.5" x2="1528" y2="-0.5" transform="matrix(-0.942411 -0.334459 0.216781 -0.97622 1440 1536.05)" stroke="#D5FF40" stroke-opacity="0.5"/>
<line y1="-0.5" x2="1528.31" y2="-0.5" transform="matrix(0.942215 -0.33501 0.217164 0.976135 0 2049)" stroke="#D5FF40" stroke-opacity="0.5"/>
<line y1="-0.5" x2="1528.31" y2="-0.5" transform="matrix(0.942215 -0.33501 -0.217164 -0.976135 0 1537)" stroke="#D5FF40" stroke-opacity="0.5"/>
<line y1="-0.5" x2="1766.97" y2="-0.5" transform="matrix(0.814955 -0.579524 0.406521 0.913641 0 3073)" stroke="#D5FF40" stroke-opacity="0.5"/>
<line y1="-0.5" x2="1766.97" y2="-0.5" transform="matrix(-0.814955 -0.579524 -0.406521 0.913641 1440 3073)" stroke="#D5FF40" stroke-opacity="0.5"/>
<line x1="720.5" y1="2049" x2="720.5" y2="3073" stroke="#D5FF40" stroke-opacity="0.5"/>
<line x1="360.5" y1="2049" x2="360.5" y2="3073" stroke="#D5FF40" stroke-opacity="0.5"/>
<line x1="288.5" y1="2049" x2="288.5" y2="3073" stroke="#D5FF40" stroke-opacity="0.5"/>
<line x1="240.5" y1="2049" x2="240.5" y2="3073" stroke="#D5FF40" stroke-opacity="0.5"/>
<line x1="573.5" y1="2049" x2="573.5" y2="3073" stroke="#D5FF40" stroke-opacity="0.5"/>
<line x1="864.5" y1="2049" x2="864.5" y2="3073" stroke="#D5FF40" stroke-opacity="0.5"/>
<line x1="1152.12" y1="2049" x2="1152.12" y2="3073" stroke="#D5FF40" stroke-opacity="0.5"/>
<line x1="1199.75" y1="2049" x2="1199.75" y2="3073" stroke="#D5FF40" stroke-opacity="0.5"/>
<line x1="1259.56" y1="2049" x2="1259.56" y2="3073" stroke="#D5FF40" stroke-opacity="0.5"/>
<line x1="1349" y1="2049" x2="1349" y2="3073" stroke="#D5FF40" stroke-opacity="0.5"/>
<line x1="1396.25" y1="2049" x2="1396.25" y2="3073" stroke="#D5FF40" stroke-opacity="0.5"/>
<line x1="1418.75" y1="2049" x2="1418.75" y2="3073" stroke="#D5FF40" stroke-opacity="0.5"/>
<line x1="182" y1="2049" x2="182" y2="3073" stroke="#D5FF40" stroke-opacity="0.5"/>
<line x1="91.0625" y1="2049" x2="91.0625" y2="3073" stroke="#D5FF40" stroke-opacity="0.5"/>
<line x1="44" y1="2049" x2="44" y2="3073" stroke="#D5FF40" stroke-opacity="0.5"/>
<line x1="20.75" y1="2049" x2="20.75" y2="3073" stroke="#D5FF40" stroke-opacity="0.5"/>
<line x1="479.938" y1="2049" x2="479.938" y2="3073" stroke="#D5FF40" stroke-opacity="0.5"/>
<line x1="431.75" y1="2049" x2="431.75" y2="3073" stroke="#D5FF40" stroke-opacity="0.5"/>
<line x1="960.312" y1="2049" x2="960.312" y2="3073" stroke="#D5FF40" stroke-opacity="0.5"/>
<line x1="1008.5" y1="2049" x2="1008.5" y2="3073" stroke="#D5FF40" stroke-opacity="0.5"/>
<line x1="1080.5" y1="2049" x2="1080.5" y2="3073" stroke="#D5FF40" stroke-opacity="0.5"/>
<line y1="2560.5" x2="1440" y2="2560.5" stroke="#D5FF40" stroke-opacity="0.5"/>
<line y1="2304.97" x2="1440" y2="2304.97" stroke="#D5FF40" stroke-opacity="0.5"/>
<line y1="2177.92" x2="1440" y2="2177.92" stroke="#D5FF40" stroke-opacity="0.5"/>
<line y1="2081.92" x2="1440" y2="2081.92" stroke="#D5FF40" stroke-opacity="0.5"/>
<line y1="2389.6" x2="1440" y2="2389.6" stroke="#D5FF40" stroke-opacity="0.5"/>
<line y1="2458.57" x2="1440" y2="2458.57" stroke="#D5FF40" stroke-opacity="0.5"/>
<line y1="2661.95" x2="1440" y2="2661.95" stroke="#D5FF40" stroke-opacity="0.5"/>
<line y1="2730.93" x2="1440" y2="2730.93" stroke="#D5FF40" stroke-opacity="0.5"/>
<line y1="2816.5" x2="1440" y2="2816.5" stroke="#D5FF40" stroke-opacity="0.5"/>
<line y1="2942.6" x2="1440" y2="2942.6" stroke="#D5FF40" stroke-opacity="0.5"/>
<line y1="3041.21" x2="1440" y2="3041.21" stroke="#D5FF40" stroke-opacity="0.5"/>
<line y1="-0.5" x2="1252.22" y2="-0.5" transform="matrix(0.575577 -0.817747 0.664396 0.74738 0 3073)" stroke="#D5FF40" stroke-opacity="0.5"/>
<line y1="-0.5" x2="1251.36" y2="-0.5" transform="matrix(0.574776 -0.818311 0.665169 0.746693 720.75 3073)" stroke="#D5FF40" stroke-opacity="0.5"/>
<line y1="-0.5" x2="1251.79" y2="-0.5" transform="matrix(-0.575177 -0.818029 -0.664783 0.747037 720 3073)" stroke="#D5FF40" stroke-opacity="0.5"/>
<line y1="-0.5" x2="1251.79" y2="-0.5" transform="matrix(-0.575177 -0.818029 -0.664783 0.747037 1440 3073)" stroke="#D5FF40" stroke-opacity="0.5"/>
<line y1="-0.5" x2="1528.31" y2="-0.5" transform="matrix(-0.942215 -0.33501 0.217164 -0.976135 1440 3073)" stroke="#D5FF40" stroke-opacity="0.5"/>
<line y1="-0.5" x2="1528" y2="-0.5" transform="matrix(-0.942411 -0.334459 0.216781 -0.97622 1440 2560.05)" stroke="#D5FF40" stroke-opacity="0.5"/>
<line y1="-0.5" x2="1528.31" y2="-0.5" transform="matrix(0.942215 -0.33501 0.217164 0.976135 0 3073)" stroke="#D5FF40" stroke-opacity="0.5"/>
<line y1="-0.5" x2="1528.31" y2="-0.5" transform="matrix(0.942215 -0.33501 -0.217164 -0.976135 0 2561)" stroke="#D5FF40" stroke-opacity="0.5"/>
<line y1="-0.5" x2="1766.97" y2="-0.5" transform="matrix(0.814955 -0.579524 0.406521 0.913641 0 4097)" stroke="#D5FF40" stroke-opacity="0.5"/>
<line y1="-0.5" x2="1766.97" y2="-0.5" transform="matrix(-0.814955 -0.579524 -0.406521 0.913641 1440 4097)" stroke="#D5FF40" stroke-opacity="0.5"/>
<line x1="720.5" y1="3073" x2="720.5" y2="4097" stroke="#D5FF40" stroke-opacity="0.5"/>
<line x1="360.5" y1="3073" x2="360.5" y2="4097" stroke="#D5FF40" stroke-opacity="0.5"/>
<line x1="288.5" y1="3073" x2="288.5" y2="4097" stroke="#D5FF40" stroke-opacity="0.5"/>
<line x1="240.5" y1="3073" x2="240.5" y2="4097" stroke="#D5FF40" stroke-opacity="0.5"/>
<line x1="573.5" y1="3073" x2="573.5" y2="4097" stroke="#D5FF40" stroke-opacity="0.5"/>
<line x1="864.5" y1="3073" x2="864.5" y2="4097" stroke="#D5FF40" stroke-opacity="0.5"/>
<line x1="1152.12" y1="3073" x2="1152.12" y2="4097" stroke="#D5FF40" stroke-opacity="0.5"/>
<line x1="1199.75" y1="3073" x2="1199.75" y2="4097" stroke="#D5FF40" stroke-opacity="0.5"/>
<line x1="1259.56" y1="3073" x2="1259.56" y2="4097" stroke="#D5FF40" stroke-opacity="0.5"/>
<line x1="1349" y1="3073" x2="1349" y2="4097" stroke="#D5FF40" stroke-opacity="0.5"/>
<line x1="1396.25" y1="3073" x2="1396.25" y2="4097" stroke="#D5FF40" stroke-opacity="0.5"/>
<line x1="1418.75" y1="3073" x2="1418.75" y2="4097" stroke="#D5FF40" stroke-opacity="0.5"/>
<line x1="182" y1="3073" x2="182" y2="4097" stroke="#D5FF40" stroke-opacity="0.5"/>
<line x1="91.0625" y1="3073" x2="91.0625" y2="4097" stroke="#D5FF40" stroke-opacity="0.5"/>
<line x1="44" y1="3073" x2="44" y2="4097" stroke="#D5FF40" stroke-opacity="0.5"/>
<line x1="20.75" y1="3073" x2="20.75" y2="4097" stroke="#D5FF40" stroke-opacity="0.5"/>
<line x1="479.938" y1="3073" x2="479.938" y2="4097" stroke="#D5FF40" stroke-opacity="0.5"/>
<line x1="431.75" y1="3073" x2="431.75" y2="4097" stroke="#D5FF40" stroke-opacity="0.5"/>
<line x1="960.312" y1="3073" x2="960.312" y2="4097" stroke="#D5FF40" stroke-opacity="0.5"/>
<line x1="1008.5" y1="3073" x2="1008.5" y2="4097" stroke="#D5FF40" stroke-opacity="0.5"/>
<line x1="1080.5" y1="3073" x2="1080.5" y2="4097" stroke="#D5FF40" stroke-opacity="0.5"/>
<line y1="3584.5" x2="1440" y2="3584.5" stroke="#D5FF40" stroke-opacity="0.5"/>
<line y1="3328.97" x2="1440" y2="3328.97" stroke="#D5FF40" stroke-opacity="0.5"/>
<line y1="3201.92" x2="1440" y2="3201.92" stroke="#D5FF40" stroke-opacity="0.5"/>
<line y1="3105.92" x2="1440" y2="3105.92" stroke="#D5FF40" stroke-opacity="0.5"/>
<line y1="3413.6" x2="1440" y2="3413.6" stroke="#D5FF40" stroke-opacity="0.5"/>
<line y1="3482.57" x2="1440" y2="3482.57" stroke="#D5FF40" stroke-opacity="0.5"/>
<line y1="3685.95" x2="1440" y2="3685.95" stroke="#D5FF40" stroke-opacity="0.5"/>
<line y1="3754.93" x2="1440" y2="3754.93" stroke="#D5FF40" stroke-opacity="0.5"/>
<line y1="3840.5" x2="1440" y2="3840.5" stroke="#D5FF40" stroke-opacity="0.5"/>
<line y1="3966.6" x2="1440" y2="3966.6" stroke="#D5FF40" stroke-opacity="0.5"/>
<line y1="4065.21" x2="1440" y2="4065.21" stroke="#D5FF40" stroke-opacity="0.5"/>
<line y1="-0.5" x2="1252.22" y2="-0.5" transform="matrix(0.575577 -0.817747 0.664396 0.74738 0 4097)" stroke="#D5FF40" stroke-opacity="0.5"/>
<line y1="-0.5" x2="1251.36" y2="-0.5" transform="matrix(0.574776 -0.818311 0.665169 0.746693 720.75 4097)" stroke="#D5FF40" stroke-opacity="0.5"/>
<line y1="-0.5" x2="1251.79" y2="-0.5" transform="matrix(-0.575177 -0.818029 -0.664783 0.747037 720 4097)" stroke="#D5FF40" stroke-opacity="0.5"/>
<line y1="-0.5" x2="1251.79" y2="-0.5" transform="matrix(-0.575177 -0.818029 -0.664783 0.747037 1440 4097)" stroke="#D5FF40" stroke-opacity="0.5"/>
<line y1="-0.5" x2="1528.31" y2="-0.5" transform="matrix(-0.942215 -0.33501 0.217164 -0.976135 1440 4097)" stroke="#D5FF40" stroke-opacity="0.5"/>
<line y1="-0.5" x2="1528" y2="-0.5" transform="matrix(-0.942411 -0.334459 0.216781 -0.97622 1440 3584.05)" stroke="#D5FF40" stroke-opacity="0.5"/>
<line y1="-0.5" x2="1528.31" y2="-0.5" transform="matrix(0.942215 -0.33501 0.217164 0.976135 0 4097)" stroke="#D5FF40" stroke-opacity="0.5"/>
<line y1="-0.5" x2="1528.31" y2="-0.5" transform="matrix(0.942215 -0.33501 -0.217164 -0.976135 0 3585)" stroke="#D5FF40" stroke-opacity="0.5"/>
<line y1="-0.5" x2="1766.97" y2="-0.5" transform="matrix(0.814955 -0.579524 0.406521 0.913641 0 5121)" stroke="#D5FF40" stroke-opacity="0.5"/>
<line y1="-0.5" x2="1766.97" y2="-0.5" transform="matrix(-0.814955 -0.579524 -0.406521 0.913641 1440 5121)" stroke="#D5FF40" stroke-opacity="0.5"/>
<line x1="720.5" y1="4097" x2="720.5" y2="5121" stroke="#D5FF40" stroke-opacity="0.5"/>
<line x1="360.5" y1="4097" x2="360.5" y2="5121" stroke="#D5FF40" stroke-opacity="0.5"/>
<line x1="288.5" y1="4097" x2="288.5" y2="5121" stroke="#D5FF40" stroke-opacity="0.5"/>
<line x1="240.5" y1="4097" x2="240.5" y2="5121" stroke="#D5FF40" stroke-opacity="0.5"/>
<line x1="573.5" y1="4097" x2="573.5" y2="5121" stroke="#D5FF40" stroke-opacity="0.5"/>
<line x1="864.5" y1="4097" x2="864.5" y2="5121" stroke="#D5FF40" stroke-opacity="0.5"/>
<line x1="1152.12" y1="4097" x2="1152.12" y2="5121" stroke="#D5FF40" stroke-opacity="0.5"/>
<line x1="1199.75" y1="4097" x2="1199.75" y2="5121" stroke="#D5FF40" stroke-opacity="0.5"/>
<line x1="1259.56" y1="4097" x2="1259.56" y2="5121" stroke="#D5FF40" stroke-opacity="0.5"/>
<line x1="1349" y1="4097" x2="1349" y2="5121" stroke="#D5FF40" stroke-opacity="0.5"/>
<line x1="1396.25" y1="4097" x2="1396.25" y2="5121" stroke="#D5FF40" stroke-opacity="0.5"/>
<line x1="1418.75" y1="4097" x2="1418.75" y2="5121" stroke="#D5FF40" stroke-opacity="0.5"/>
<line x1="182" y1="4097" x2="182" y2="5121" stroke="#D5FF40" stroke-opacity="0.5"/>
<line x1="91.0625" y1="4097" x2="91.0625" y2="5121" stroke="#D5FF40" stroke-opacity="0.5"/>
<line x1="44" y1="4097" x2="44" y2="5121" stroke="#D5FF40" stroke-opacity="0.5"/>
<line x1="20.75" y1="4097" x2="20.75" y2="5121" stroke="#D5FF40" stroke-opacity="0.5"/>
<line x1="479.938" y1="4097" x2="479.938" y2="5121" stroke="#D5FF40" stroke-opacity="0.5"/>
<line x1="431.75" y1="4097" x2="431.75" y2="5121" stroke="#D5FF40" stroke-opacity="0.5"/>
<line x1="960.312" y1="4097" x2="960.312" y2="5121" stroke="#D5FF40" stroke-opacity="0.5"/>
<line x1="1008.5" y1="4097" x2="1008.5" y2="5121" stroke="#D5FF40" stroke-opacity="0.5"/>
<line x1="1080.5" y1="4097" x2="1080.5" y2="5121" stroke="#D5FF40" stroke-opacity="0.5"/>
<line y1="4608.5" x2="1440" y2="4608.5" stroke="#D5FF40" stroke-opacity="0.5"/>
<line y1="4352.97" x2="1440" y2="4352.97" stroke="#D5FF40" stroke-opacity="0.5"/>
<line y1="4225.92" x2="1440" y2="4225.92" stroke="#D5FF40" stroke-opacity="0.5"/>
<line y1="4129.92" x2="1440" y2="4129.92" stroke="#D5FF40" stroke-opacity="0.5"/>
<line y1="4437.6" x2="1440" y2="4437.6" stroke="#D5FF40" stroke-opacity="0.5"/>
<line y1="4506.57" x2="1440" y2="4506.57" stroke="#D5FF40" stroke-opacity="0.5"/>
<line y1="4709.95" x2="1440" y2="4709.95" stroke="#D5FF40" stroke-opacity="0.5"/>
<line y1="4778.93" x2="1440" y2="4778.93" stroke="#D5FF40" stroke-opacity="0.5"/>
<line y1="4864.5" x2="1440" y2="4864.5" stroke="#D5FF40" stroke-opacity="0.5"/>
<line y1="4990.6" x2="1440" y2="4990.6" stroke="#D5FF40" stroke-opacity="0.5"/>
<line y1="5089.21" x2="1440" y2="5089.21" stroke="#D5FF40" stroke-opacity="0.5"/>
<line y1="-0.5" x2="1252.22" y2="-0.5" transform="matrix(0.575577 -0.817747 0.664396 0.74738 0 5121)" stroke="#D5FF40" stroke-opacity="0.5"/>
<line y1="-0.5" x2="1251.36" y2="-0.5" transform="matrix(0.574776 -0.818311 0.665169 0.746693 720.75 5121)" stroke="#D5FF40" stroke-opacity="0.5"/>
<line y1="-0.5" x2="1251.79" y2="-0.5" transform="matrix(-0.575177 -0.818029 -0.664783 0.747037 720 5121)" stroke="#D5FF40" stroke-opacity="0.5"/>
<line y1="-0.5" x2="1251.79" y2="-0.5" transform="matrix(-0.575177 -0.818029 -0.664783 0.747037 1440 5121)" stroke="#D5FF40" stroke-opacity="0.5"/>
<line y1="-0.5" x2="1528.31" y2="-0.5" transform="matrix(-0.942215 -0.33501 0.217164 -0.976135 1440 5121)" stroke="#D5FF40" stroke-opacity="0.5"/>
<line y1="-0.5" x2="1528" y2="-0.5" transform="matrix(-0.942411 -0.334459 0.216781 -0.97622 1440 4608.05)" stroke="#D5FF40" stroke-opacity="0.5"/>
<line y1="-0.5" x2="1528.31" y2="-0.5" transform="matrix(0.942215 -0.33501 0.217164 0.976135 0 5121)" stroke="#D5FF40" stroke-opacity="0.5"/>
<line y1="-0.5" x2="1528.31" y2="-0.5" transform="matrix(0.942215 -0.33501 -0.217164 -0.976135 0 4609)" stroke="#D5FF40" stroke-opacity="0.5"/>
</svg>
